<?xml version="1.0" standalone="no"?><!DOCTYPE svg PUBLIC "-//W3C//DTD SVG 1.1//EN" "http://www.w3.org/Graphics/SVG/1.1/DTD/svg11.dtd"><svg t="1727669197757" class="icon" viewBox="0 0 1024 1024" version="1.1" xmlns="http://www.w3.org/2000/svg" p-id="1205" xmlns:xlink="http://www.w3.org/1999/xlink" width="16" height="16"><path d="M285.636994 408.973532l20.204158 27.877931c16.835434 125.664048 101.072977 219.913619 202.13265 219.913618 104.418164 0 188.633195-97.740068 202.134696-223.404116l16.847714-17.405415c-20.219507-24.434505-10.109242-52.360532 6.737448-94.248547 13.476943-34.907021 26.955932-69.814042 13.476942-101.230566-13.476943-45.367257-47.171346-87.231737-87.60422-111.666242-43.779086-27.925003-141.470035-66.322521-218.97013-31.416524-10.107195 3.491521-16.847713 10.472516-26.954909 20.945031-13.465686 13.963013-30.3134 27.925003-60.626799 34.905998-47.173392 6.957459-77.486792 41.86448-87.593987 73.27998-10.109242 34.895765 3.368724 69.801762 16.847713 104.708784 20.204158 45.379537 30.3134 76.79606 3.368724 97.740068z m222.336808 212.884528c-94.332459 0-171.806971-101.229542-171.806971-226.846518 0-17.453511 0-17.453511 16.84669-20.944008 13.465686-3.490497 37.051871-6.980995 50.529837-31.416523l30.313399-41.88904c6.738471 3.491521 23.586185 10.472516 53.898561 31.416524 16.835434 10.471492 33.683147 17.453511 47.161113 17.453511 23.587208 0 37.039591-13.963013 47.173392-24.434506 13.476943 17.453511 33.695427 24.434505 53.911864 31.416524 30.30112 13.963013 43.779086 20.945031 43.779086 38.397518 0.002047 125.615952-77.472466 226.846518-171.806971 226.846518zM299.103704 216.98594c3.368724-10.460236 16.847713-41.87676 60.639078-52.323693 40.432875-7.005554 60.650335-27.926026 77.484746-41.889039C443.964976 115.792213 450.705494 112.300692 454.075241 108.810195c60.626799-27.925003 144.864342 3.491521 188.643428 27.926026 33.695427 20.920472 60.625776 55.82647 74.128301 94.211708 6.737448 20.944008-3.369747 48.870034-13.502526 76.795037-3.345188 10.471492-10.083659 24.434505-13.454429 38.397519-13.475919-10.472516-30.323633-17.453511-43.802622-20.945032-20.216437-6.980995-37.040614-13.963013-43.779086-27.925002-6.739495-10.472516-13.477966-13.963013-20.216437-13.963013-10.132778 0-16.847713 6.982018-23.586185 17.45351-6.740518 10.472516-13.45443 17.453511-26.931372 17.453511-6.739495 0-16.872273-3.490497-30.337959-10.471493-50.529837-34.907021-67.37755-38.397518-77.486792-38.397518h-10.107196l-10.096962 13.963013-33.695426 45.379537c0 6.980995-6.738471 6.980995-20.204158 10.471492-6.739495 0-10.109242 3.490497-16.84669 6.982018-6.740518-17.453511-13.477966-31.416524-16.847713-48.870034-13.478989-27.926026-23.588231-55.851029-16.847713-80.285534z m165.140131 296.320822a95.711875 95.711875 0 0 1-12.228509-10.81123c-2.048659-2.181689-3.394307-3.78214-3.988848-4.557806l-15.694447 12.703323c3.830235 5.04183 10.676154 12.266371 20.301372 19.441795 38.759769 28.845978 85.12168 28.845978 132.99706-18.326391l-13.719467-14.932084c-40.483017 39.898709-76.249615 39.898709-107.667161 16.482393z m400.837224 223.695758c-10.132778-24.435529-218.993666-97.691973-218.993666-97.691973 50.519604 160.522973-77.474512 296.659537-77.474513 296.659537l-30.325679-212.929553 13.477966-10.472516-13.477966-24.435529h-40.420595l-13.478989 24.435529 13.478989 10.472516-20.206204 216.422097c-131.396609-87.266529-104.441701-300.151058-104.4417-300.151057-57.268308 3.491521-218.96706 97.691973-218.967061 97.691973-37.064151 59.341526-40.434921 219.912595-40.434921 219.912595h791.673678c13.476943-59.34255-30.326702-195.479113-40.409339-219.913619z" fill="#4ec5fd" p-id="1206"></path></svg>