<?xml version="1.0" standalone="no"?><!DOCTYPE svg PUBLIC "-//W3C//DTD SVG 1.1//EN" "http://www.w3.org/Graphics/SVG/1.1/DTD/svg11.dtd"><svg t="1727669280209" class="icon" viewBox="0 0 1024 1024" version="1.1" xmlns="http://www.w3.org/2000/svg" p-id="1205" xmlns:xlink="http://www.w3.org/1999/xlink" width="16" height="16"><path d="M771.2 780.8c105.6-153.6 80-368-73.6-444.8 51.2 48 176 185.6 73.6 444.8zM236.8 998.4h118.4l-12.8-243.2-105.6 243.2z" fill="#ff7558" p-id="1206"></path><path d="M249.6 208c-19.2 179.2 48 275.2 83.2 345.6 32 67.2 41.6 416 41.6 441.6h313.6c0-38.4 6.4-112 57.6-233.6 83.2-201.6 41.6-310.4-102.4-432C496 208 563.2 25.6 563.2 25.6H188.8c0 3.2 70.4 96 60.8 182.4z" fill="#ff7558" p-id="1207"></path></svg>