<?xml version="1.0" standalone="no"?><!DOCTYPE svg PUBLIC "-//W3C//DTD SVG 1.1//EN" "http://www.w3.org/Graphics/SVG/1.1/DTD/svg11.dtd"><svg t="1727455483343" class="icon" viewBox="0 0 1024 1024" version="1.1" xmlns="http://www.w3.org/2000/svg" p-id="2173" xmlns:xlink="http://www.w3.org/1999/xlink" width="16" height="16"><path d="M144 357.333333a32 32 0 0 1 31.701333 27.648l0.298667 4.352v277.333334a181.333333 181.333333 0 0 0 172.544 181.12l8.789333 0.213333h323.029334a117.333333 117.333333 0 1 1 39.765333 64H357.376a245.333333 245.333333 0 0 1-245.162667-235.946667l-0.170666-9.386666v-277.333334a32 32 0 0 1 32-32zM794.666667 768a53.333333 53.333333 0 1 0 0 106.666667 53.333333 53.333333 0 0 0 0-106.666667zM229.333333 85.333333c28.288 0 54.229333 10.026667 74.496 26.666667h362.88a245.290667 245.290667 0 0 1 245.12 235.946667l0.170667 9.386666v277.333334a32 32 0 0 1-63.701333 4.352l-0.298667-4.352v-277.333334a181.290667 181.290667 0 0 0-172.501333-181.12l-8.789334-0.213333H343.637333A117.333333 117.333333 0 1 1 229.333333 85.333333z m0 64a53.333333 53.333333 0 1 0 0 106.666667 53.333333 53.333333 0 0 0 0-106.666667z" fill="#505559" p-id="2174"></path><path d="M427.008 656.213333a42.24 42.24 0 0 0 30.890667 11.861334c14.677333 0 30.378667-5.290667 44.117333-10.965334 35.285333-14.592 173.354667-90.837333 173.354667-145.365333 0-58.197333-153.429333-135.978667-175.274667-145.024-15.274667-6.314667-51.114667-21.12-73.088 0.426667v0.042666c-6.229333 6.186667-24.96 24.746667-24.917333 148.224 0.085333 116.48 18.133333 134.186667 24.917333 140.8z m43.648-49.749333c-7.466667-39.552-7.338667-139.093333 0.128-180.736 37.845333 14.08 116.821333 64.981333 138.24 90.026667-21.504 25.770667-101.461333 77.781333-138.368 90.709333z" fill="#505559" p-id="2175"></path></svg>