<?xml version="1.0" standalone="no"?><!DOCTYPE svg PUBLIC "-//W3C//DTD SVG 1.1//EN" "http://www.w3.org/Graphics/SVG/1.1/DTD/svg11.dtd"><svg t="1728370276997" class="icon" viewBox="0 0 1317 1024" version="1.1" xmlns="http://www.w3.org/2000/svg" p-id="1482" xmlns:xlink="http://www.w3.org/1999/xlink" width="82.3125" height="64"><path d="M263.342955 802.795417s0-0.133789 0 0c4.080563 6.468181 11.716824 10.559035 20.011738 10.559035 12.107899 0 21.586332-9.900382 21.586332-22.172944 0-4.353286-1.183518-8.310352-3.293266-11.742553-27.905286-54.107337-43.568884-115.475296-43.568885-180.270312 0-216.959357 176.128-393.535035 392.54191-393.535035 110.185487 0 209.966312 45.791839 281.316985 119.432362 68.844704 70.866975 111.23007 167.735317 111.23007 274.231316 0 60.179296-13.558995 117.188824-37.77994 168.265327a20.82991 20.82991 0 0 0-2.897045 10.55389c0 12.272563 11.063317 22.172945 23.037427 22.172944 7.77005 0 14.742513-3.962211 18.694433-10.162814h0.128643c0.133789-0.396221 0.396221-0.658653 0.53001-1.054874a45.436784 45.436784 0 0 0 1.183517-2.50597 437.695678 437.695678 0 0 0 41.989146-187.397146c0-10.296603-0.391075-20.459417-1.049728-30.617085V69.827538l91.491055 79.707336a21.714975 21.714975 0 0 0 30.802331-2.238392c7.898693-9.10794 6.977608-22.965387-2.109748-30.879517L1081.086714 6.483618c-3.550553-3.03598-7.77005-4.883296-12.246835-5.279517a18.751035 18.751035 0 0 0-3.812985-0.396222 21.766432 21.766432 0 0 0-15.46806 6.401287 21.879638 21.879638 0 0 0-6.380703 15.509226v382.976C971.822312 260.528241 822.673367 160.495276 650.615638 160.495276c-241.159719 0-437.433246 196.772663-437.433246 438.539578 0 73.506734 18.164422 142.79397 50.155417 203.760563z m1047.186653 70.074533c-28.965307-31.008161-70.033367-8.04792-102.019216 4.224643-16.980905 6.468181-26.860704 4.620864-42.261869-4.883297-16.980905-10.425246-32.248281-21.905367-52.784885-24.148904-21.190111-2.243538-40.409407 6.329246-58.048965 17.289648-22.908784 14.382312-47.258372 19.795618-73.326633 8.706573-19.87795-8.444141-36.462633-22.831598-57.920321-27.184884-23.562291-4.749508-45.282412 5.938171-64.105488 19.136964-18.956864 13.461226-32.119638 14.649889-53.052462 3.962212-22.244985-11.351477-45.544844-22.044302-71.216885-16.234774-23.171216 5.274372-42.915377 19.795618-65.952804 25.862432-25.14203 6.60197-48.966754-12.534995-70.16201-22.692664-19.87795-9.504161-42.385367-12.015276-63.055758-3.828422-20.274171 8.04792-36.328844 26.917307-58.841407 28.764624-26.984201 2.243538-49.362975-15.179899-73.321488-23.752684-24.879598-8.840362-48.179457-3.432201-70.954452 8.449287-12.766553 6.725467-25.270673 17.943156-40.676985 15.833407-15.133588-2.109749-25.800683-15.179899-39.359678-21.112925-37.77994-16.497206-64.239276 11.083899-97.542433 22.826452-22.903638 8.053065-51.735156-19.399397-72.13797-27.184884-30.015035-11.346332-58.054111-1.981106-77.93206 22.831598-18.164422 22.831598 13.955216 44.078312 32.382071 20.984281 11.320603-14.119879 19.090653-17.814513 35.546693-10.034171 17.505769 8.181709 33.169367 19.008322 51.467578 25.471357 19.87795 6.998191 39.755899 2.511116 58.316543-5.670593 18.298211-8.053065 37.126432-28.244905 57.395457-15.308543 18.823075 12.004985 34.224241 20.984281 57.395457 21.771578 23.428503 0.792442 43.568884-14.510955 63.318191-24.941346 22.641206-11.876342 43.965106 6.334392 64.630352 14.387457 25.934472 10.029025 55.162211 13.857447 81.487759 3.427055 17.639558-6.859256 31.594774-21.771578 49.625407-27.051095 20.536603-6.200603 48.838111 18.740744 67.27011 25.733789 21.848764 8.181709 45.807276 7.785487 67.794975 0.53001 24.220945-7.924422 45.544844-27.714894 72.13797-20.325628 21.586332 6.07196 38.171015 22.172945 61.604663 23.490251 23.567437 1.322452 41.989146-7.651698 60.683578-20.984282 7.898693-5.670593 16.193608-11.083899 26.196905-11.474975 8.953568-0.401367 18.694432 7.255477 25.800683 11.608764 23.299859 13.723658 47.129729 22.301588 74.247719 22.831598 16.847116 0.262432 31.985849-3.694633 47.258372-10.291457 12.63791-5.413307 22.898492-15.179899 35.80398-20.063196 21.323899-8.04792 40.939417 13.723658 58.445185 22.831598 23.433648 12.14392 46.208643 10.559035 70.167156 1.451095 11.449246-4.353286 22.507417-9.499015 34.090452-13.461226 4.348141-1.451095 9.087357-2.902191 13.692784-3.298412 5.788945-0.396221 2.634613-0.926231 5.660302 2.377327 20.140382 21.642935 52.388663 0.658653 32.253427-20.855638z m-175.474492 113.103115c-14.217648 5.408161-22.512563 3.823276-35.541548-3.962211-14.222794-8.57793-27.251779-18.076945-44.366473-19.924261-17.90199-1.852462-34.090452 5.274372-48.832964 14.382312-19.353085 11.876342-39.755899 16.363417-61.743598 7.126834-16.718472-6.998191-30.668543-18.874533-48.704322-22.569166-19.87795-3.962211-38.176161 4.888442-53.973548 15.838553-15.92603 11.083899-26.984201 12.14392-44.623758 3.298412-18.694432-9.365226-38.304804-18.210734-59.896282-13.461226-19.615518 4.353286-36.200201 16.363417-55.419497 21.251859-21.195256 5.403015-41.201849-10.296603-59.10384-18.74589-16.723618-7.785487-35.675337-9.895236-53.052462-3.164623-17.114693 6.730613-30.539899 22.167799-49.496764 23.752684-22.641206 1.852462-41.464281-12.534995-61.738452-19.661829-20.927678-7.255477-40.543196-2.902191-59.762492 6.998191-10.66195 5.536804-21.323899 14.778533-34.224242 13.059859-12.771698-1.713528-21.720121-12.534995-33.174512-17.418292-31.857206-13.595015-53.973548 9.10794-82.012623 18.869387-19.34794 6.60197-43.57403-16.100985-60.683578-22.435377-25.275819-9.365226-48.838111-1.579739-65.556583 18.874533-15.401166 18.869387 11.583035 38.140141 27.11799 19.136965 9.478432-11.61391 16.059819-14.649889 30.009889-8.181709 14.747658 6.859256 27.910432 15.699618 43.311598 20.979136 16.718472 5.809528 33.436945 2.109749 49.100543-4.749508 15.401166-6.596824 31.332342-23.361608 48.313246-12.668783 15.797387 9.895236 28.826372 17.289648 48.313246 18.08209 19.744161 0.658653 36.591276-12.010131 53.181106-20.58806 19.090653-9.766593 36.987497 5.145729 54.493266 11.876341 21.85391 8.315497 46.471075 11.480121 68.587417 2.902191 14.742513-5.675739 26.58798-17.948302 41.73186-22.435376 17.238191-5.01194 41.06806 15.570975 56.603015 21.251859 18.426854 6.859256 38.567236 6.463035 57.127879 0.524864 20.40796-6.60197 38.30995-22.965387 60.688724-16.759638 18.164422 5.01194 32.119638 18.344523 51.863799 19.399397 19.744161 1.183518 35.279116-6.334392 51.076502-17.289648 6.715176-4.615719 13.558995-9.10794 21.982553-9.499015 7.502472-0.396221 15.663598 6.07196 21.720121 9.499015 19.615518 11.351477 39.622111 18.473166 62.530894 18.874532 14.083859 0.257286 26.850412-3.03598 39.750754-8.577929 10.533307-4.492221 19.224442-12.540141 30.148824-16.630995 18.035779-6.730613 34.486673 11.351477 49.234332 18.869387 19.744161 10.034171 38.829668 8.711719 58.97005 1.188663 9.612221-3.560844 18.956864-7.785487 28.697729-11.217688 3.684342-1.183518 7.636261-2.372181 11.454392-2.768402 4.867859-0.396221 2.238392-0.658653 4.73407 1.975959 16.980905 17.819658 44.098894-1.317307 27.11799-19.131819-24.61202-25.208925-59.103839-6.205749-85.954251 3.823277zM95.370935 232.020905c2.238392-0.653508 21.987698-6.066814 29.227738 10.692824 0.257286 2.243538 0.653508 4.487075 1.440804 6.730613 1.06002 3.694633 4.610573 6.205749 8.300061 6.205748 0.787296 0 1.574593-0.133789 2.500824-0.396221a8.593367 8.593367 0 0 0 5.917588-10.692824c-5.392724-18.210734 14.089005-26.13001 16.327397-27.051095 4.476784-1.718673 6.715176-6.60197 5.130291-10.955257a8.68599 8.68599 0 0 0-11.053025-5.145728c-7.373829 2.639759-17.907136 9.236583-23.824724 19.399397-12.643055-9.504161-29.490171-8.315497-38.968603-5.279518a8.68599 8.68599 0 0 0-5.660301 10.687679 8.366955 8.366955 0 0 0 10.66195 5.809527zM224.508141 143.205628c3.030834-0.921085 28.960161-8.181709 38.572382 14.253668 0.396221 2.907337 0.921085 5.943317 1.84217 8.979297a11.37206 11.37206 0 0 0 10.924382 8.181709c1.054874 0 2.109749-0.133789 3.159478-0.396222 6.056523-1.718673 9.478432-8.181709 7.77005-14.253668-7.111397-24.282693 18.426854-34.836583 21.457688-36.030392 5.917588-2.243538 8.948422-8.706573 6.710031-14.644744-2.238392-5.943317-8.68599-8.974151-14.61387-6.730613-9.740864 3.560844-23.562291 12.272563-31.460985 25.862432-16.713327-12.668784-38.963457-11.083899-51.333789-6.993045a11.567598 11.567598 0 0 0-7.373829 14.387458 11.577889 11.577889 0 0 0 14.346292 7.389266z" fill="#3fca80" p-id="1483"></path><path d="M431.181186 651.294874c5.922734 5.938171 15.534955 5.938171 21.591477 0l20.140382-20.191839 20.140382 20.191839c5.922734 5.938171 15.534955 5.938171 21.586332 0 5.922734-5.938171 5.922734-15.570975 0-21.642934L494.504523 609.460101l20.140382-20.19184c5.922734-5.938171 5.922734-15.570975 0-21.642934-5.922734-5.938171-15.534955-5.938171-21.586332 0l-20.140382 20.191839-20.140382-20.191839c-5.922734-5.938171-15.534955-5.938171-21.591477 0-5.922734 5.938171-5.922734 15.570975 0 21.642934l20.140382 20.19184-20.140382 20.191839c-5.922734 5.938171-5.922734 15.570975 0 21.642934z m361.477146 0c5.927879 5.938171 15.540101 5.938171 21.591477 0l20.140382-20.191839 20.140382 20.191839c5.922734 5.938171 15.534955 5.938171 21.591477 0 5.917588-5.938171 5.917588-15.570975 0-21.642934l-20.145527-20.191839 20.145527-20.19184c5.917588-5.938171 5.917588-15.570975 0-21.642934-5.922734-5.938171-15.534955-5.938171-21.591477 0l-20.140382 20.191839-20.140382-20.191839c-5.922734-5.938171-15.534955-5.938171-21.591477 0-5.917588 5.938171-5.917588 15.570975 0 21.642934l20.145527 20.19184-20.145527 20.191839c-5.917588 5.938171-5.917588 15.570975 0 21.642934z" fill="#3fca80" p-id="1484"></path></svg>